# MagicaVoxel @ Ephtracy

# group
g church6-21

# material
mtllib church6-21.mtl
usemtl palette

# normals
vn -1 0 0
vn 1 0 0
vn 0 0 1
vn 0 0 -1
vn 0 -1 0
vn 0 1 0

# texcoords
vt 0.306641 0.5
vt 0.314453 0.5
vt 0.365234 0.5

# verts
v -22.5 0 21
v -22.5 0 20
v -22.5 0 -2
v -22.5 0 -4
v -22.5 6 20
v -22.5 6 5
v -22.5 6 -2
v -22.5 8 20
v -22.5 8 5
v -22.5 8 -3
v -22.5 12 -3
v -22.5 12 -4
v -22.5 18 21
v -22.5 18 20
v -22.5 18 -3
v -22.5 18 -4
v -20.5 9 21
v -20.5 9 20
v -20.5 9 -3
v -20.5 9 -4
v -20.5 10 21
v -20.5 10 20
v -20.5 10 -3
v -20.5 10 -4
v -18.5 9 21
v -18.5 9 20
v -18.5 9 -3
v -18.5 9 -4
v -18.5 10 21
v -18.5 10 20
v -18.5 10 -3
v -18.5 10 -4
v -16.5 9 21
v -16.5 9 20
v -16.5 9 -3
v -16.5 9 -4
v -16.5 10 21
v -16.5 10 20
v -16.5 10 -3
v -16.5 10 -4
v -14.5 9 21
v -14.5 9 20
v -14.5 9 -3
v -14.5 9 -4
v -14.5 10 21
v -14.5 10 20
v -14.5 10 -3
v -14.5 10 -4
v -12.5 9 21
v -12.5 9 20
v -12.5 9 -3
v -12.5 9 -4
v -12.5 10 21
v -12.5 10 20
v -12.5 10 -3
v -12.5 10 -4
v -10.5 9 21
v -10.5 9 20
v -10.5 9 -3
v -10.5 9 -4
v -10.5 10 21
v -10.5 10 20
v -10.5 10 -3
v -10.5 10 -4
v -8.5 4 21
v -8.5 4 20
v -8.5 4 -2
v -8.5 4 -4
v -8.5 6 21
v -8.5 6 20
v -8.5 6 -2
v -8.5 6 -4
v -8.5 9 21
v -8.5 9 20
v -8.5 9 -3
v -8.5 9 -4
v -8.5 10 21
v -8.5 10 20
v -8.5 10 -3
v -8.5 10 -4
v -6.5 2 21
v -6.5 2 20
v -6.5 2 -2
v -6.5 2 -4
v -6.5 4 21
v -6.5 4 20
v -6.5 4 -2
v -6.5 4 -4
v -6.5 9 21
v -6.5 9 20
v -6.5 9 -3
v -6.5 9 -4
v -6.5 10 21
v -6.5 10 20
v -6.5 10 -3
v -6.5 10 -4
v -21.5 9 21
v -21.5 9 20
v -21.5 9 -3
v -21.5 9 -4
v -21.5 10 21
v -21.5 10 20
v -21.5 10 -3
v -21.5 10 -4
v -21.5 12 21
v -21.5 12 20
v -21.5 12 -3
v -21.5 12 -4
v -21.5 15 21
v -21.5 15 20
v -21.5 15 -3
v -21.5 15 -4
v -21.5 17 21
v -21.5 17 20
v -21.5 17 -3
v -21.5 17 -4
v -21.5 18 21
v -21.5 18 20
v -21.5 18 -3
v -21.5 18 -4
v -20.5 15 21
v -20.5 15 20
v -20.5 15 -3
v -20.5 15 -4
v -20.5 17 21
v -20.5 17 20
v -20.5 17 -3
v -20.5 17 -4
v -19.5 0 21
v -19.5 0 20
v -19.5 0 -2
v -19.5 0 -4
v -19.5 2 21
v -19.5 2 20
v -19.5 2 -2
v -19.5 2 -4
v -19.5 9 21
v -19.5 9 20
v -19.5 9 -3
v -19.5 9 -4
v -19.5 10 21
v -19.5 10 20
v -19.5 10 -3
v -19.5 10 -4
v -17.5 2 21
v -17.5 2 20
v -17.5 2 -2
v -17.5 2 -4
v -17.5 4 21
v -17.5 4 20
v -17.5 4 -2
v -17.5 4 -4
v -17.5 9 21
v -17.5 9 20
v -17.5 9 -3
v -17.5 9 -4
v -17.5 10 21
v -17.5 10 20
v -17.5 10 -3
v -17.5 10 -4
v -15.5 4 21
v -15.5 4 20
v -15.5 4 -2
v -15.5 4 -4
v -15.5 6 21
v -15.5 6 20
v -15.5 6 -2
v -15.5 6 -4
v -15.5 9 21
v -15.5 9 20
v -15.5 9 -3
v -15.5 9 -4
v -15.5 10 21
v -15.5 10 20
v -15.5 10 -3
v -15.5 10 -4
v -13.5 9 21
v -13.5 9 20
v -13.5 9 -3
v -13.5 9 -4
v -13.5 10 21
v -13.5 10 20
v -13.5 10 -3
v -13.5 10 -4
v -11.5 9 21
v -11.5 9 20
v -11.5 9 -3
v -11.5 9 -4
v -11.5 10 21
v -11.5 10 20
v -11.5 10 -3
v -11.5 10 -4
v -9.5 9 21
v -9.5 9 20
v -9.5 9 -3
v -9.5 9 -4
v -9.5 10 21
v -9.5 10 20
v -9.5 10 -3
v -9.5 10 -4
v -7.5 9 21
v -7.5 9 20
v -7.5 9 -3
v -7.5 9 -4
v -7.5 10 21
v -7.5 10 20
v -7.5 10 -3
v -7.5 10 -4
v 1.5 2 21
v 1.5 2 20
v 1.5 2 -2
v 1.5 2 -4
v 1.5 6 20
v 1.5 6 -2
v 1.5 8 20
v 1.5 8 -3
v 1.5 12 21
v 1.5 12 20
v 1.5 12 -3
v 1.5 12 -4
v -22.5 0 21
v -22.5 18 21
v -21.5 9 21
v -21.5 10 21
v -21.5 12 21
v -21.5 15 21
v -21.5 17 21
v -21.5 18 21
v -20.5 9 21
v -20.5 10 21
v -20.5 15 21
v -20.5 17 21
v -19.5 0 21
v -19.5 2 21
v -19.5 9 21
v -19.5 10 21
v -18.5 9 21
v -18.5 10 21
v -17.5 2 21
v -17.5 4 21
v -17.5 9 21
v -17.5 10 21
v -16.5 9 21
v -16.5 10 21
v -15.5 4 21
v -15.5 6 21
v -15.5 9 21
v -15.5 10 21
v -14.5 9 21
v -14.5 10 21
v -13.5 9 21
v -13.5 10 21
v -12.5 9 21
v -12.5 10 21
v -11.5 9 21
v -11.5 10 21
v -10.5 9 21
v -10.5 10 21
v -9.5 9 21
v -9.5 10 21
v -8.5 4 21
v -8.5 6 21
v -8.5 9 21
v -8.5 10 21
v -7.5 9 21
v -7.5 10 21
v -6.5 2 21
v -6.5 4 21
v -6.5 9 21
v -6.5 10 21
v -5.5 2 21
v -5.5 12 21
v -2.5 2 21
v -2.5 12 21
v 1.5 2 21
v 1.5 12 21
v -22.5 0 -2
v -22.5 6 -2
v -19.5 0 -2
v -19.5 2 -2
v -17.5 2 -2
v -17.5 4 -2
v -15.5 4 -2
v -15.5 6 -2
v -8.5 4 -2
v -8.5 6 -2
v -6.5 2 -2
v -6.5 4 -2
v -2.5 2 -2
v -2.5 6 -2
v 1.5 2 -2
v 1.5 6 -2
v -22.5 8 -3
v -22.5 12 -3
v -22.5 18 -3
v -21.5 9 -3
v -21.5 10 -3
v -21.5 11 -3
v -21.5 12 -3
v -21.5 15 -3
v -21.5 17 -3
v -21.5 18 -3
v -20.5 9 -3
v -20.5 10 -3
v -20.5 15 -3
v -20.5 17 -3
v -19.5 9 -3
v -19.5 10 -3
v -18.5 9 -3
v -18.5 10 -3
v -17.5 9 -3
v -17.5 10 -3
v -16.5 9 -3
v -16.5 10 -3
v -15.5 9 -3
v -15.5 10 -3
v -14.5 9 -3
v -14.5 10 -3
v -13.5 9 -3
v -13.5 10 -3
v -12.5 9 -3
v -12.5 10 -3
v -11.5 9 -3
v -11.5 10 -3
v -10.5 9 -3
v -10.5 10 -3
v -9.5 9 -3
v -9.5 10 -3
v -8.5 9 -3
v -8.5 10 -3
v -7.5 9 -3
v -7.5 10 -3
v -6.5 9 -3
v -6.5 10 -3
v -5.5 11 -3
v -5.5 12 -3
v -2.5 8 -3
v -2.5 12 -3
v 1.5 8 -3
v 1.5 12 -3
v -22.5 0 20
v -22.5 6 20
v -22.5 8 20
v -22.5 18 20
v -21.5 9 20
v -21.5 10 20
v -21.5 12 20
v -21.5 15 20
v -21.5 17 20
v -21.5 18 20
v -20.5 9 20
v -20.5 10 20
v -20.5 15 20
v -20.5 17 20
v -19.5 0 20
v -19.5 2 20
v -19.5 9 20
v -19.5 10 20
v -18.5 9 20
v -18.5 10 20
v -17.5 2 20
v -17.5 4 20
v -17.5 9 20
v -17.5 10 20
v -16.5 9 20
v -16.5 10 20
v -15.5 4 20
v -15.5 6 20
v -15.5 9 20
v -15.5 10 20
v -14.5 9 20
v -14.5 10 20
v -13.5 9 20
v -13.5 10 20
v -12.5 9 20
v -12.5 10 20
v -11.5 9 20
v -11.5 10 20
v -10.5 9 20
v -10.5 10 20
v -9.5 9 20
v -9.5 10 20
v -8.5 4 20
v -8.5 6 20
v -8.5 9 20
v -8.5 10 20
v -7.5 9 20
v -7.5 10 20
v -6.5 2 20
v -6.5 4 20
v -6.5 9 20
v -6.5 10 20
v -5.5 2 20
v -5.5 6 20
v -5.5 8 20
v -5.5 12 20
v -2.5 2 20
v -2.5 6 20
v -2.5 8 20
v -2.5 12 20
v 1.5 2 20
v 1.5 6 20
v 1.5 8 20
v 1.5 12 20
v -22.5 0 -4
v -22.5 12 -4
v -22.5 18 -4
v -21.5 9 -4
v -21.5 10 -4
v -21.5 11 -4
v -21.5 12 -4
v -21.5 15 -4
v -21.5 17 -4
v -21.5 18 -4
v -20.5 9 -4
v -20.5 10 -4
v -20.5 15 -4
v -20.5 17 -4
v -19.5 0 -4
v -19.5 2 -4
v -19.5 9 -4
v -19.5 10 -4
v -18.5 9 -4
v -18.5 10 -4
v -17.5 2 -4
v -17.5 4 -4
v -17.5 9 -4
v -17.5 10 -4
v -16.5 9 -4
v -16.5 10 -4
v -15.5 4 -4
v -15.5 6 -4
v -15.5 9 -4
v -15.5 10 -4
v -14.5 9 -4
v -14.5 10 -4
v -13.5 9 -4
v -13.5 10 -4
v -12.5 9 -4
v -12.5 10 -4
v -11.5 9 -4
v -11.5 10 -4
v -10.5 9 -4
v -10.5 10 -4
v -9.5 9 -4
v -9.5 10 -4
v -8.5 4 -4
v -8.5 6 -4
v -8.5 9 -4
v -8.5 10 -4
v -7.5 9 -4
v -7.5 10 -4
v -6.5 2 -4
v -6.5 4 -4
v -6.5 9 -4
v -6.5 10 -4
v -5.5 11 -4
v -5.5 12 -4
v -2.5 2 -4
v -2.5 12 -4
v 1.5 2 -4
v 1.5 12 -4
v -22.5 0 21
v -19.5 0 21
v -22.5 0 20
v -19.5 0 20
v -22.5 0 -2
v -19.5 0 -2
v -22.5 0 -4
v -19.5 0 -4
v -19.5 2 21
v -17.5 2 21
v -6.5 2 21
v -5.5 2 21
v -2.5 2 21
v 1.5 2 21
v -19.5 2 20
v -17.5 2 20
v -6.5 2 20
v -5.5 2 20
v -2.5 2 20
v 1.5 2 20
v -19.5 2 -2
v -17.5 2 -2
v -6.5 2 -2
v -2.5 2 -2
v 1.5 2 -2
v -19.5 2 -4
v -17.5 2 -4
v -6.5 2 -4
v -2.5 2 -4
v 1.5 2 -4
v -17.5 4 21
v -15.5 4 21
v -8.5 4 21
v -6.5 4 21
v -17.5 4 20
v -15.5 4 20
v -8.5 4 20
v -6.5 4 20
v -17.5 4 -2
v -15.5 4 -2
v -8.5 4 -2
v -6.5 4 -2
v -17.5 4 -4
v -15.5 4 -4
v -8.5 4 -4
v -6.5 4 -4
v -15.5 6 21
v -8.5 6 21
v -22.5 6 20
v -15.5 6 20
v -8.5 6 20
v -5.5 6 20
v -2.5 6 20
v 1.5 6 20
v -22.5 6 5
v -5.5 6 5
v -22.5 6 -2
v -15.5 6 -2
v -8.5 6 -2
v -2.5 6 -2
v 1.5 6 -2
v -15.5 6 -4
v -8.5 6 -4
v -21.5 10 21
v -20.5 10 21
v -19.5 10 21
v -18.5 10 21
v -17.5 10 21
v -16.5 10 21
v -15.5 10 21
v -14.5 10 21
v -13.5 10 21
v -12.5 10 21
v -11.5 10 21
v -10.5 10 21
v -9.5 10 21
v -8.5 10 21
v -7.5 10 21
v -6.5 10 21
v -21.5 10 20
v -20.5 10 20
v -19.5 10 20
v -18.5 10 20
v -17.5 10 20
v -16.5 10 20
v -15.5 10 20
v -14.5 10 20
v -13.5 10 20
v -12.5 10 20
v -11.5 10 20
v -10.5 10 20
v -9.5 10 20
v -8.5 10 20
v -7.5 10 20
v -6.5 10 20
v -21.5 10 -3
v -20.5 10 -3
v -19.5 10 -3
v -18.5 10 -3
v -17.5 10 -3
v -16.5 10 -3
v -15.5 10 -3
v -14.5 10 -3
v -13.5 10 -3
v -12.5 10 -3
v -11.5 10 -3
v -10.5 10 -3
v -9.5 10 -3
v -8.5 10 -3
v -7.5 10 -3
v -6.5 10 -3
v -21.5 10 -4
v -20.5 10 -4
v -19.5 10 -4
v -18.5 10 -4
v -17.5 10 -4
v -16.5 10 -4
v -15.5 10 -4
v -14.5 10 -4
v -13.5 10 -4
v -12.5 10 -4
v -11.5 10 -4
v -10.5 10 -4
v -9.5 10 -4
v -8.5 10 -4
v -7.5 10 -4
v -6.5 10 -4
v -21.5 15 21
v -20.5 15 21
v -21.5 15 20
v -20.5 15 20
v -21.5 15 -3
v -20.5 15 -3
v -21.5 15 -4
v -20.5 15 -4
v -22.5 8 20
v -5.5 8 20
v -2.5 8 20
v 1.5 8 20
v -22.5 8 5
v -5.5 8 5
v -22.5 8 -3
v -2.5 8 -3
v 1.5 8 -3
v -21.5 9 21
v -20.5 9 21
v -19.5 9 21
v -18.5 9 21
v -17.5 9 21
v -16.5 9 21
v -15.5 9 21
v -14.5 9 21
v -13.5 9 21
v -12.5 9 21
v -11.5 9 21
v -10.5 9 21
v -9.5 9 21
v -8.5 9 21
v -7.5 9 21
v -6.5 9 21
v -21.5 9 20
v -20.5 9 20
v -19.5 9 20
v -18.5 9 20
v -17.5 9 20
v -16.5 9 20
v -15.5 9 20
v -14.5 9 20
v -13.5 9 20
v -12.5 9 20
v -11.5 9 20
v -10.5 9 20
v -9.5 9 20
v -8.5 9 20
v -7.5 9 20
v -6.5 9 20
v -21.5 9 -3
v -20.5 9 -3
v -19.5 9 -3
v -18.5 9 -3
v -17.5 9 -3
v -16.5 9 -3
v -15.5 9 -3
v -14.5 9 -3
v -13.5 9 -3
v -12.5 9 -3
v -11.5 9 -3
v -10.5 9 -3
v -9.5 9 -3
v -8.5 9 -3
v -7.5 9 -3
v -6.5 9 -3
v -21.5 9 -4
v -20.5 9 -4
v -19.5 9 -4
v -18.5 9 -4
v -17.5 9 -4
v -16.5 9 -4
v -15.5 9 -4
v -14.5 9 -4
v -13.5 9 -4
v -12.5 9 -4
v -11.5 9 -4
v -10.5 9 -4
v -9.5 9 -4
v -8.5 9 -4
v -7.5 9 -4
v -6.5 9 -4
v -21.5 12 21
v -5.5 12 21
v -2.5 12 21
v 1.5 12 21
v -21.5 12 20
v -5.5 12 20
v -2.5 12 20
v 1.5 12 20
v -21.5 12 -3
v -5.5 12 -3
v -2.5 12 -3
v 1.5 12 -3
v -21.5 12 -4
v -5.5 12 -4
v -2.5 12 -4
v 1.5 12 -4
v -21.5 17 21
v -20.5 17 21
v -21.5 17 20
v -20.5 17 20
v -21.5 17 -3
v -20.5 17 -3
v -21.5 17 -4
v -20.5 17 -4
v -22.5 18 21
v -21.5 18 21
v -22.5 18 20
v -21.5 18 20
v -22.5 18 -3
v -21.5 18 -3
v -22.5 18 -4
v -21.5 18 -4

# faces
f 5/3/1 2/3/1 1/3/1
f 7/1/1 4/1/1 3/1/1
f 8/3/1 6/3/1 5/3/1
f 8/3/1 5/3/1 1/3/1
f 9/1/1 7/1/1 6/1/1
f 9/3/1 6/3/1 8/3/1
f 10/1/1 4/1/1 7/1/1
f 10/1/1 7/1/1 9/1/1
f 11/1/1 4/1/1 10/1/1
f 12/1/1 4/1/1 11/1/1
f 13/3/1 8/3/1 1/3/1
f 14/3/1 8/3/1 13/3/1
f 15/3/1 12/3/1 11/3/1
f 16/3/1 12/3/1 15/3/1
f 21/3/1 18/3/1 17/3/1
f 22/3/1 18/3/1 21/3/1
f 23/1/1 20/1/1 19/1/1
f 24/1/1 20/1/1 23/1/1
f 29/3/1 26/3/1 25/3/1
f 30/3/1 26/3/1 29/3/1
f 31/1/1 28/1/1 27/1/1
f 32/1/1 28/1/1 31/1/1
f 37/3/1 34/3/1 33/3/1
f 38/3/1 34/3/1 37/3/1
f 39/1/1 36/1/1 35/1/1
f 40/1/1 36/1/1 39/1/1
f 45/3/1 42/3/1 41/3/1
f 46/3/1 42/3/1 45/3/1
f 47/1/1 44/1/1 43/1/1
f 48/1/1 44/1/1 47/1/1
f 53/3/1 50/3/1 49/3/1
f 54/3/1 50/3/1 53/3/1
f 55/1/1 52/1/1 51/1/1
f 56/1/1 52/1/1 55/1/1
f 61/3/1 58/3/1 57/3/1
f 62/3/1 58/3/1 61/3/1
f 63/1/1 60/1/1 59/1/1
f 64/1/1 60/1/1 63/1/1
f 69/3/1 66/3/1 65/3/1
f 70/3/1 66/3/1 69/3/1
f 71/1/1 68/1/1 67/1/1
f 72/1/1 68/1/1 71/1/1
f 77/3/1 74/3/1 73/3/1
f 78/3/1 74/3/1 77/3/1
f 79/1/1 76/1/1 75/1/1
f 80/1/1 76/1/1 79/1/1
f 85/3/1 82/3/1 81/3/1
f 86/3/1 82/3/1 85/3/1
f 87/1/1 84/1/1 83/1/1
f 88/1/1 84/1/1 87/1/1
f 93/3/1 90/3/1 89/3/1
f 94/3/1 90/3/1 93/3/1
f 95/1/1 92/1/1 91/1/1
f 96/1/1 92/1/1 95/1/1
f 97/3/2 98/3/2 101/3/2
f 101/3/2 98/3/2 102/3/2
f 99/1/2 100/1/2 103/1/2
f 103/1/2 100/1/2 104/1/2
f 105/3/2 106/3/2 109/3/2
f 109/3/2 106/3/2 110/3/2
f 107/3/2 108/3/2 111/3/2
f 111/3/2 108/3/2 112/3/2
f 113/3/2 114/3/2 117/3/2
f 117/3/2 114/3/2 118/3/2
f 115/3/2 116/3/2 119/3/2
f 119/3/2 116/3/2 120/3/2
f 121/3/2 122/3/2 125/3/2
f 125/3/2 122/3/2 126/3/2
f 123/3/2 124/3/2 127/3/2
f 127/3/2 124/3/2 128/3/2
f 129/3/2 130/3/2 133/3/2
f 133/3/2 130/3/2 134/3/2
f 131/1/2 132/1/2 135/1/2
f 135/1/2 132/1/2 136/1/2
f 137/3/2 138/3/2 141/3/2
f 141/3/2 138/3/2 142/3/2
f 139/1/2 140/1/2 143/1/2
f 143/1/2 140/1/2 144/1/2
f 145/3/2 146/3/2 149/3/2
f 149/3/2 146/3/2 150/3/2
f 147/1/2 148/1/2 151/1/2
f 151/1/2 148/1/2 152/1/2
f 153/3/2 154/3/2 157/3/2
f 157/3/2 154/3/2 158/3/2
f 155/1/2 156/1/2 159/1/2
f 159/1/2 156/1/2 160/1/2
f 161/3/2 162/3/2 165/3/2
f 165/3/2 162/3/2 166/3/2
f 163/1/2 164/1/2 167/1/2
f 167/1/2 164/1/2 168/1/2
f 169/3/2 170/3/2 173/3/2
f 173/3/2 170/3/2 174/3/2
f 171/1/2 172/1/2 175/1/2
f 175/1/2 172/1/2 176/1/2
f 177/3/2 178/3/2 181/3/2
f 181/3/2 178/3/2 182/3/2
f 179/1/2 180/1/2 183/1/2
f 183/1/2 180/1/2 184/1/2
f 185/3/2 186/3/2 189/3/2
f 189/3/2 186/3/2 190/3/2
f 187/1/2 188/1/2 191/1/2
f 191/1/2 188/1/2 192/1/2
f 193/3/2 194/3/2 197/3/2
f 197/3/2 194/3/2 198/3/2
f 195/1/2 196/1/2 199/1/2
f 199/1/2 196/1/2 200/1/2
f 201/3/2 202/3/2 205/3/2
f 205/3/2 202/3/2 206/3/2
f 203/1/2 204/1/2 207/1/2
f 207/1/2 204/1/2 208/1/2
f 209/2/2 210/2/2 213/2/2
f 211/2/2 212/2/2 214/2/2
f 209/2/2 213/2/2 215/2/2
f 213/2/2 214/2/2 215/2/2
f 214/2/2 212/2/2 216/2/2
f 215/2/2 214/2/2 216/2/2
f 209/2/2 215/2/2 217/2/2
f 217/2/2 215/2/2 218/2/2
f 216/2/2 212/2/2 219/2/2
f 219/2/2 212/2/2 220/2/2
f 223/3/3 222/3/3 221/3/3
f 224/3/3 222/3/3 223/3/3
f 225/3/3 222/3/3 224/3/3
f 226/3/3 222/3/3 225/3/3
f 227/3/3 222/3/3 226/3/3
f 228/3/3 222/3/3 227/3/3
f 229/3/3 223/3/3 221/3/3
f 230/3/3 225/3/3 224/3/3
f 231/3/3 227/3/3 226/3/3
f 232/3/3 227/3/3 231/3/3
f 233/3/3 230/3/3 229/3/3
f 233/3/3 229/3/3 221/3/3
f 234/3/3 230/3/3 233/3/3
f 235/3/3 230/3/3 234/3/3
f 236/3/3 225/3/3 230/3/3
f 236/3/3 230/3/3 235/3/3
f 237/3/3 235/3/3 234/3/3
f 238/3/3 225/3/3 236/3/3
f 239/3/3 237/3/3 234/3/3
f 239/3/3 238/3/3 237/3/3
f 240/3/3 238/3/3 239/3/3
f 241/3/3 238/3/3 240/3/3
f 242/3/3 225/3/3 238/3/3
f 242/3/3 238/3/3 241/3/3
f 243/3/3 241/3/3 240/3/3
f 244/3/3 225/3/3 242/3/3
f 245/3/3 243/3/3 240/3/3
f 245/3/3 244/3/3 243/3/3
f 246/3/3 244/3/3 245/3/3
f 247/3/3 244/3/3 246/3/3
f 248/3/3 225/3/3 244/3/3
f 248/3/3 244/3/3 247/3/3
f 249/3/3 247/3/3 246/3/3
f 250/3/3 225/3/3 248/3/3
f 251/3/3 249/3/3 246/3/3
f 251/3/3 250/3/3 249/3/3
f 252/3/3 225/3/3 250/3/3
f 252/3/3 250/3/3 251/3/3
f 253/3/3 251/3/3 246/3/3
f 254/3/3 225/3/3 252/3/3
f 255/3/3 253/3/3 246/3/3
f 255/3/3 254/3/3 253/3/3
f 256/3/3 225/3/3 254/3/3
f 256/3/3 254/3/3 255/3/3
f 257/3/3 255/3/3 246/3/3
f 258/3/3 225/3/3 256/3/3
f 259/3/3 257/3/3 246/3/3
f 259/3/3 258/3/3 257/3/3
f 260/3/3 225/3/3 258/3/3
f 260/3/3 258/3/3 259/3/3
f 262/3/3 259/3/3 246/3/3
f 263/3/3 259/3/3 262/3/3
f 264/3/3 225/3/3 260/3/3
f 265/3/3 263/3/3 262/3/3
f 265/3/3 264/3/3 263/3/3
f 265/3/3 262/3/3 261/3/3
f 266/3/3 225/3/3 264/3/3
f 266/3/3 264/3/3 265/3/3
f 268/3/3 265/3/3 261/3/3
f 269/3/3 265/3/3 268/3/3
f 270/3/3 225/3/3 266/3/3
f 271/3/3 269/3/3 268/3/3
f 271/3/3 270/3/3 269/3/3
f 271/3/3 268/3/3 267/3/3
f 272/3/3 225/3/3 270/3/3
f 272/3/3 270/3/3 271/3/3
f 273/1/3 272/1/3 271/1/3
f 274/1/3 272/1/3 273/1/3
f 275/2/3 274/2/3 273/2/3
f 276/2/3 274/2/3 275/2/3
f 279/1/3 278/1/3 277/1/3
f 280/1/3 278/1/3 279/1/3
f 281/1/3 278/1/3 280/1/3
f 282/1/3 278/1/3 281/1/3
f 283/1/3 278/1/3 282/1/3
f 284/1/3 278/1/3 283/1/3
f 288/1/3 286/1/3 285/1/3
f 289/1/3 288/1/3 287/1/3
f 290/1/3 286/1/3 288/1/3
f 290/1/3 288/1/3 289/1/3
f 291/2/3 290/2/3 289/2/3
f 292/2/3 290/2/3 291/2/3
f 296/1/3 294/1/3 293/1/3
f 297/1/3 294/1/3 296/1/3
f 298/1/3 294/1/3 297/1/3
f 299/3/3 295/3/3 294/3/3
f 299/1/3 294/1/3 298/1/3
f 300/3/3 295/3/3 299/3/3
f 301/3/3 295/3/3 300/3/3
f 302/3/3 295/3/3 301/3/3
f 303/1/3 296/1/3 293/1/3
f 304/1/3 298/1/3 297/1/3
f 305/3/3 301/3/3 300/3/3
f 306/3/3 301/3/3 305/3/3
f 307/1/3 303/1/3 293/1/3
f 307/1/3 304/1/3 303/1/3
f 308/1/3 298/1/3 304/1/3
f 308/1/3 304/1/3 307/1/3
f 309/1/3 307/1/3 293/1/3
f 310/1/3 298/1/3 308/1/3
f 311/1/3 309/1/3 293/1/3
f 311/1/3 310/1/3 309/1/3
f 312/1/3 298/1/3 310/1/3
f 312/1/3 310/1/3 311/1/3
f 313/1/3 311/1/3 293/1/3
f 314/1/3 298/1/3 312/1/3
f 315/1/3 313/1/3 293/1/3
f 315/1/3 314/1/3 313/1/3
f 316/1/3 298/1/3 314/1/3
f 316/1/3 314/1/3 315/1/3
f 317/1/3 315/1/3 293/1/3
f 318/1/3 298/1/3 316/1/3
f 319/1/3 317/1/3 293/1/3
f 319/1/3 318/1/3 317/1/3
f 320/1/3 298/1/3 318/1/3
f 320/1/3 318/1/3 319/1/3
f 321/1/3 319/1/3 293/1/3
f 322/1/3 298/1/3 320/1/3
f 323/1/3 321/1/3 293/1/3
f 323/1/3 322/1/3 321/1/3
f 324/1/3 298/1/3 322/1/3
f 324/1/3 322/1/3 323/1/3
f 325/1/3 323/1/3 293/1/3
f 326/1/3 298/1/3 324/1/3
f 327/1/3 325/1/3 293/1/3
f 327/1/3 326/1/3 325/1/3
f 328/1/3 298/1/3 326/1/3
f 328/1/3 326/1/3 327/1/3
f 329/1/3 327/1/3 293/1/3
f 330/1/3 298/1/3 328/1/3
f 331/1/3 329/1/3 293/1/3
f 331/1/3 330/1/3 329/1/3
f 332/1/3 298/1/3 330/1/3
f 332/1/3 330/1/3 331/1/3
f 333/1/3 331/1/3 293/1/3
f 334/1/3 298/1/3 332/1/3
f 335/3/3 299/3/3 298/3/3
f 335/1/3 334/1/3 333/1/3
f 335/1/3 298/1/3 334/1/3
f 336/3/3 299/3/3 335/3/3
f 337/1/3 333/1/3 293/1/3
f 337/1/3 335/1/3 333/1/3
f 337/1/3 336/1/3 335/1/3
f 338/1/3 336/1/3 337/1/3
f 339/2/3 338/2/3 337/2/3
f 340/2/3 338/2/3 339/2/3
f 343/3/4 344/3/4 345/3/4
f 345/3/4 344/3/4 346/3/4
f 346/3/4 344/3/4 347/3/4
f 347/3/4 344/3/4 348/3/4
f 348/3/4 344/3/4 349/3/4
f 349/3/4 344/3/4 350/3/4
f 343/3/4 345/3/4 351/3/4
f 346/3/4 347/3/4 352/3/4
f 348/3/4 349/3/4 353/3/4
f 353/3/4 349/3/4 354/3/4
f 341/3/4 342/3/4 355/3/4
f 355/3/4 342/3/4 356/3/4
f 351/3/4 352/3/4 357/3/4
f 343/3/4 351/3/4 357/3/4
f 352/3/4 347/3/4 358/3/4
f 357/3/4 352/3/4 358/3/4
f 343/3/4 357/3/4 359/3/4
f 358/3/4 347/3/4 360/3/4
f 356/3/4 342/3/4 361/3/4
f 361/3/4 342/3/4 362/3/4
f 359/3/4 360/3/4 363/3/4
f 343/3/4 359/3/4 363/3/4
f 360/3/4 347/3/4 364/3/4
f 363/3/4 360/3/4 364/3/4
f 343/3/4 363/3/4 365/3/4
f 364/3/4 347/3/4 366/3/4
f 362/3/4 342/3/4 367/3/4
f 367/3/4 342/3/4 368/3/4
f 365/3/4 366/3/4 369/3/4
f 343/3/4 365/3/4 369/3/4
f 366/3/4 347/3/4 370/3/4
f 369/3/4 366/3/4 370/3/4
f 343/3/4 369/3/4 371/3/4
f 370/3/4 347/3/4 372/3/4
f 343/3/4 371/3/4 373/3/4
f 371/3/4 372/3/4 373/3/4
f 372/3/4 347/3/4 374/3/4
f 373/3/4 372/3/4 374/3/4
f 343/3/4 373/3/4 375/3/4
f 374/3/4 347/3/4 376/3/4
f 343/3/4 375/3/4 377/3/4
f 375/3/4 376/3/4 377/3/4
f 376/3/4 347/3/4 378/3/4
f 377/3/4 376/3/4 378/3/4
f 343/3/4 377/3/4 379/3/4
f 378/3/4 347/3/4 380/3/4
f 343/3/4 379/3/4 381/3/4
f 379/3/4 380/3/4 381/3/4
f 380/3/4 347/3/4 382/3/4
f 381/3/4 380/3/4 382/3/4
f 343/3/4 381/3/4 385/3/4
f 382/3/4 347/3/4 386/3/4
f 343/3/4 385/3/4 387/3/4
f 385/3/4 386/3/4 387/3/4
f 386/3/4 347/3/4 388/3/4
f 387/3/4 386/3/4 388/3/4
f 383/3/4 384/3/4 390/3/4
f 343/3/4 387/3/4 391/3/4
f 388/3/4 347/3/4 392/3/4
f 389/3/4 390/3/4 393/3/4
f 390/3/4 384/3/4 394/3/4
f 393/3/4 390/3/4 394/3/4
f 343/3/4 391/3/4 395/3/4
f 391/3/4 392/3/4 395/3/4
f 392/3/4 347/3/4 396/3/4
f 395/3/4 392/3/4 396/3/4
f 393/1/4 394/1/4 397/1/4
f 397/1/4 394/1/4 398/1/4
f 395/1/4 396/1/4 399/1/4
f 399/1/4 396/1/4 400/1/4
f 397/2/4 398/2/4 401/2/4
f 401/2/4 398/2/4 402/2/4
f 399/2/4 400/2/4 403/2/4
f 403/2/4 400/2/4 404/2/4
f 405/1/4 406/1/4 408/1/4
f 408/1/4 406/1/4 409/1/4
f 409/1/4 406/1/4 410/1/4
f 406/3/4 407/3/4 411/3/4
f 410/1/4 406/1/4 411/1/4
f 411/3/4 407/3/4 412/3/4
f 412/3/4 407/3/4 413/3/4
f 413/3/4 407/3/4 414/3/4
f 405/1/4 408/1/4 415/1/4
f 409/1/4 410/1/4 416/1/4
f 412/3/4 413/3/4 417/3/4
f 417/3/4 413/3/4 418/3/4
f 405/1/4 415/1/4 419/1/4
f 415/1/4 416/1/4 419/1/4
f 419/1/4 416/1/4 420/1/4
f 420/1/4 416/1/4 421/1/4
f 416/1/4 410/1/4 422/1/4
f 421/1/4 416/1/4 422/1/4
f 420/1/4 421/1/4 423/1/4
f 422/1/4 410/1/4 424/1/4
f 420/1/4 423/1/4 425/1/4
f 423/1/4 424/1/4 425/1/4
f 425/1/4 424/1/4 426/1/4
f 426/1/4 424/1/4 427/1/4
f 424/1/4 410/1/4 428/1/4
f 427/1/4 424/1/4 428/1/4
f 426/1/4 427/1/4 429/1/4
f 428/1/4 410/1/4 430/1/4
f 426/1/4 429/1/4 431/1/4
f 429/1/4 430/1/4 431/1/4
f 431/1/4 430/1/4 432/1/4
f 432/1/4 430/1/4 433/1/4
f 430/1/4 410/1/4 434/1/4
f 433/1/4 430/1/4 434/1/4
f 432/1/4 433/1/4 435/1/4
f 434/1/4 410/1/4 436/1/4
f 432/1/4 435/1/4 437/1/4
f 435/1/4 436/1/4 437/1/4
f 436/1/4 410/1/4 438/1/4
f 437/1/4 436/1/4 438/1/4
f 432/1/4 437/1/4 439/1/4
f 438/1/4 410/1/4 440/1/4
f 432/1/4 439/1/4 441/1/4
f 439/1/4 440/1/4 441/1/4
f 440/1/4 410/1/4 442/1/4
f 441/1/4 440/1/4 442/1/4
f 432/1/4 441/1/4 443/1/4
f 442/1/4 410/1/4 444/1/4
f 432/1/4 443/1/4 445/1/4
f 443/1/4 444/1/4 445/1/4
f 444/1/4 410/1/4 446/1/4
f 445/1/4 444/1/4 446/1/4
f 432/1/4 445/1/4 448/1/4
f 448/1/4 445/1/4 449/1/4
f 446/1/4 410/1/4 450/1/4
f 448/1/4 449/1/4 451/1/4
f 449/1/4 450/1/4 451/1/4
f 447/1/4 448/1/4 451/1/4
f 450/1/4 410/1/4 452/1/4
f 451/1/4 450/1/4 452/1/4
f 447/1/4 451/1/4 454/1/4
f 454/1/4 451/1/4 455/1/4
f 452/1/4 410/1/4 456/1/4
f 410/3/4 411/3/4 457/3/4
f 455/1/4 456/1/4 457/1/4
f 456/1/4 410/1/4 457/1/4
f 454/1/4 455/1/4 457/1/4
f 453/1/4 454/1/4 457/1/4
f 457/3/4 411/3/4 458/3/4
f 453/1/4 457/1/4 459/1/4
f 457/1/4 458/1/4 459/1/4
f 459/1/4 458/1/4 460/1/4
f 459/2/4 460/2/4 461/2/4
f 461/2/4 460/2/4 462/2/4
f 465/3/5 464/3/5 463/3/5
f 466/3/5 464/3/5 465/3/5
f 469/1/5 468/1/5 467/1/5
f 470/1/5 468/1/5 469/1/5
f 477/3/5 472/3/5 471/3/5
f 478/3/5 472/3/5 477/3/5
f 479/3/5 474/3/5 473/3/5
f 480/1/5 475/1/5 474/1/5
f 480/3/5 474/3/5 479/3/5
f 481/2/5 476/2/5 475/2/5
f 481/1/5 475/1/5 480/1/5
f 482/2/5 476/2/5 481/2/5
f 488/1/5 484/1/5 483/1/5
f 489/1/5 484/1/5 488/1/5
f 490/1/5 486/1/5 485/1/5
f 491/2/5 487/2/5 486/2/5
f 491/1/5 486/1/5 490/1/5
f 492/2/5 487/2/5 491/2/5
f 497/3/5 494/3/5 493/3/5
f 498/3/5 494/3/5 497/3/5
f 499/3/5 496/3/5 495/3/5
f 500/3/5 496/3/5 499/3/5
f 505/1/5 502/1/5 501/1/5
f 506/1/5 502/1/5 505/1/5
f 507/1/5 504/1/5 503/1/5
f 508/1/5 504/1/5 507/1/5
f 512/3/5 510/3/5 509/3/5
f 513/3/5 510/3/5 512/3/5
f 517/3/5 512/3/5 511/3/5
f 517/3/5 513/3/5 512/3/5
f 517/3/5 514/3/5 513/3/5
f 518/1/5 515/1/5 514/1/5
f 518/3/5 514/3/5 517/3/5
f 519/1/5 518/1/5 517/1/5
f 520/1/5 518/1/5 519/1/5
f 521/1/5 518/1/5 520/1/5
f 522/2/5 516/2/5 515/2/5
f 522/1/5 518/1/5 521/1/5
f 522/1/5 515/1/5 518/1/5
f 523/2/5 516/2/5 522/2/5
f 524/1/5 521/1/5 520/1/5
f 525/1/5 521/1/5 524/1/5
f 542/3/5 527/3/5 526/3/5
f 543/3/5 527/3/5 542/3/5
f 544/3/5 529/3/5 528/3/5
f 545/3/5 529/3/5 544/3/5
f 546/3/5 531/3/5 530/3/5
f 547/3/5 531/3/5 546/3/5
f 548/3/5 533/3/5 532/3/5
f 549/3/5 533/3/5 548/3/5
f 550/3/5 535/3/5 534/3/5
f 551/3/5 535/3/5 550/3/5
f 552/3/5 537/3/5 536/3/5
f 553/3/5 537/3/5 552/3/5
f 554/3/5 539/3/5 538/3/5
f 555/3/5 539/3/5 554/3/5
f 556/3/5 541/3/5 540/3/5
f 557/3/5 541/3/5 556/3/5
f 574/1/5 559/1/5 558/1/5
f 575/1/5 559/1/5 574/1/5
f 576/1/5 561/1/5 560/1/5
f 577/1/5 561/1/5 576/1/5
f 578/1/5 563/1/5 562/1/5
f 579/1/5 563/1/5 578/1/5
f 580/1/5 565/1/5 564/1/5
f 581/1/5 565/1/5 580/1/5
f 582/1/5 567/1/5 566/1/5
f 583/1/5 567/1/5 582/1/5
f 584/1/5 569/1/5 568/1/5
f 585/1/5 569/1/5 584/1/5
f 586/1/5 571/1/5 570/1/5
f 587/1/5 571/1/5 586/1/5
f 588/1/5 573/1/5 572/1/5
f 589/1/5 573/1/5 588/1/5
f 592/3/5 591/3/5 590/3/5
f 593/3/5 591/3/5 592/3/5
f 596/3/5 595/3/5 594/3/5
f 597/3/5 595/3/5 596/3/5
f 598/3/6 599/3/6 602/3/6
f 599/1/6 600/1/6 603/1/6
f 602/3/6 599/3/6 603/3/6
f 602/1/6 603/1/6 604/1/6
f 600/2/6 601/2/6 605/2/6
f 604/1/6 603/1/6 605/1/6
f 603/1/6 600/1/6 605/1/6
f 605/2/6 601/2/6 606/2/6
f 607/3/6 608/3/6 623/3/6
f 623/3/6 608/3/6 624/3/6
f 609/3/6 610/3/6 625/3/6
f 625/3/6 610/3/6 626/3/6
f 611/3/6 612/3/6 627/3/6
f 627/3/6 612/3/6 628/3/6
f 613/3/6 614/3/6 629/3/6
f 629/3/6 614/3/6 630/3/6
f 615/3/6 616/3/6 631/3/6
f 631/3/6 616/3/6 632/3/6
f 617/3/6 618/3/6 633/3/6
f 633/3/6 618/3/6 634/3/6
f 619/3/6 620/3/6 635/3/6
f 635/3/6 620/3/6 636/3/6
f 621/3/6 622/3/6 637/3/6
f 637/3/6 622/3/6 638/3/6
f 639/1/6 640/1/6 655/1/6
f 655/1/6 640/1/6 656/1/6
f 641/1/6 642/1/6 657/1/6
f 657/1/6 642/1/6 658/1/6
f 643/1/6 644/1/6 659/1/6
f 659/1/6 644/1/6 660/1/6
f 645/1/6 646/1/6 661/1/6
f 661/1/6 646/1/6 662/1/6
f 647/1/6 648/1/6 663/1/6
f 663/1/6 648/1/6 664/1/6
f 649/1/6 650/1/6 665/1/6
f 665/1/6 650/1/6 666/1/6
f 651/1/6 652/1/6 667/1/6
f 667/1/6 652/1/6 668/1/6
f 653/1/6 654/1/6 669/1/6
f 669/1/6 654/1/6 670/1/6
f 671/3/6 672/3/6 675/3/6
f 672/1/6 673/1/6 676/1/6
f 675/3/6 672/3/6 676/3/6
f 673/2/6 674/2/6 677/2/6
f 676/1/6 673/1/6 677/1/6
f 677/2/6 674/2/6 678/2/6
f 679/3/6 680/3/6 683/3/6
f 680/1/6 681/1/6 684/1/6
f 683/3/6 680/3/6 684/3/6
f 681/2/6 682/2/6 685/2/6
f 684/1/6 681/1/6 685/1/6
f 685/2/6 682/2/6 686/2/6
f 687/3/6 688/3/6 689/3/6
f 689/3/6 688/3/6 690/3/6
f 691/3/6 692/3/6 693/3/6
f 693/3/6 692/3/6 694/3/6
f 695/3/6 696/3/6 697/3/6
f 697/3/6 696/3/6 698/3/6
f 699/3/6 700/3/6 701/3/6
f 701/3/6 700/3/6 702/3/6
